<?xml version="1.0" encoding="UTF-8" standalone="no"?>
<!DOCTYPE svg PUBLIC "-//W3C//DTD SVG 1.1//EN"
 "http://www.w3.org/Graphics/SVG/1.1/DTD/svg11.dtd">
<!-- Generated by graphviz version 2.36.0 (20140111.2315)
 -->
<!-- Title: chans Pages: 1 -->
<svg width="1103pt" height="1309pt"
 viewBox="0.00 0.00 1102.86 1309.37" xmlns="http://www.w3.org/2000/svg" xmlns:xlink="http://www.w3.org/1999/xlink">
<g id="graph0" class="graph" transform="scale(1 1) rotate(0) translate(4 1305.37)">
<title>chans</title>
<polygon fill="white" stroke="none" points="-4,4 -4,-1305.37 1098.86,-1305.37 1098.86,4 -4,4"/>
<!-- har -->
<g id="node1" class="node"><title>har</title>
<ellipse fill="none" stroke="black" cx="201.891" cy="-885.874" rx="27" ry="18"/>
<text text-anchor="middle" x="201.891" y="-882.174" font-family="Times,serif" font-size="14.00">/har/</text>
</g>
<!-- dnsmasq -->
<g id="node4" class="node"><title>dnsmasq</title>
<ellipse fill="none" stroke="black" cx="287.702" cy="-718.462" rx="46.5926" ry="18"/>
<text text-anchor="middle" x="287.702" y="-714.762" font-family="Times,serif" font-size="14.00">/dnsmasq/</text>
</g>
<!-- har&#45;&gt;dnsmasq -->
<g id="edge1" class="edge"><title>har&#45;&gt;dnsmasq</title>
<path fill="none" stroke="black" d="M210.751,-868.588C225.742,-839.341 256.209,-779.902 273.98,-745.233"/>
<polygon fill="black" stroke="black" points="277.185,-746.652 278.632,-736.157 270.956,-743.459 277.185,-746.652"/>
<text text-anchor="middle" x="183.366" y="-810.71" font-family="Times,serif" font-size="14.00">next_dns_masq_chan</text>
</g>
<!-- killbrowserStationA -->
<g id="node9" class="node"><title>killbrowserStationA</title>
<ellipse fill="none" stroke="black" cx="435.251" cy="-1051.41" rx="87.1846" ry="18"/>
<text text-anchor="middle" x="435.251" y="-1047.71" font-family="Times,serif" font-size="14.00">/killbrowser/StationA</text>
</g>
<!-- har&#45;&gt;killbrowserStationA -->
<g id="edge2" class="edge"><title>har&#45;&gt;killbrowserStationA</title>
<path fill="none" stroke="black" d="M220.593,-899.14C260.16,-927.207 352.776,-992.904 402.431,-1028.13"/>
<polygon fill="black" stroke="black" points="400.418,-1030.99 410.599,-1033.92 404.468,-1025.28 400.418,-1030.99"/>
<text text-anchor="middle" x="249.012" y="-952.433" font-family="Times,serif" font-size="14.00">kill_harvester_browser</text>
</g>
<!-- spawnHarServer -->
<g id="node12" class="node"><title>spawnHarServer</title>
<polygon fill="none" stroke="black" points="80.9186,-615.449 85.4596,-615.547 89.9537,-615.695 94.3826,-615.891 98.7281,-616.135 102.973,-616.426 107.1,-616.764 111.094,-617.147 114.94,-617.575 118.622,-618.047 122.128,-618.56 125.446,-619.114 128.564,-619.707 131.473,-620.338 134.164,-621.005 136.63,-621.705 138.864,-622.438 140.862,-623.2 142.62,-623.991 144.136,-624.807 145.409,-625.647 146.44,-626.509 147.229,-627.389 147.779,-628.285 148.095,-629.196 148.179,-630.118 148.039,-631.049 147.681,-631.987 147.111,-632.928 146.338,-633.871 145.37,-634.812 144.215,-635.75 142.885,-636.681 141.387,-637.603 139.732,-638.513 137.931,-639.41 135.993,-640.29 133.927,-641.151 131.745,-641.991 129.456,-642.807 127.068,-643.598 124.593,-644.361 122.037,-645.093 119.41,-645.794 116.719,-646.461 113.972,-647.091 111.175,-647.685 108.335,-648.239 105.458,-648.752 102.549,-649.223 99.6124,-649.651 96.6533,-650.035 93.6751,-650.373 90.6813,-650.664 87.6751,-650.908 84.659,-651.104 81.6357,-651.251 78.6073,-651.35 75.576,-651.399 72.5436,-651.399 69.5123,-651.35 66.4839,-651.251 63.4605,-651.104 60.4445,-650.908 57.4383,-650.664 54.4445,-650.373 51.4663,-650.035 48.5071,-649.651 45.5709,-649.223 42.6617,-648.752 39.7846,-648.239 36.9448,-647.685 34.1481,-647.091 31.4008,-646.461 28.7099,-645.794 26.0826,-645.093 23.5269,-644.361 21.0511,-643.598 18.6639,-642.807 16.3745,-641.991 14.1923,-641.151 12.1271,-640.29 10.1886,-639.41 8.38709,-638.513 6.73249,-637.603 5.23488,-636.681 3.90416,-635.75 2.75003,-634.812 1.78186,-633.871 1.00862,-632.928 0.438784,-631.987 0.0802333,-631.049 -0.0598369,-630.118 0.0249984,-629.196 0.34031,-628.285 0.890735,-627.389 1.6799,-626.509 2.71037,-625.647 3.98357,-624.807 5.49974,-623.991 7.2579,-623.2 9.25582,-622.438 11.49,-621.705 13.9556,-621.005 16.6465,-620.338 19.5555,-619.707 22.6737,-619.114 25.9914,-618.56 29.4976,-618.047 33.1799,-617.575 37.0252,-617.147 41.0192,-616.764 45.1466,-616.426 49.3915,-616.135 53.737,-615.891 58.1658,-615.695 62.6599,-615.547 67.201,-615.449 71.7704,-615.399 76.3492,-615.399 80.9186,-615.449"/>
<text text-anchor="middle" x="74.0598" y="-629.699" font-family="Times,serif" font-size="14.00">spawnHarServer</text>
</g>
<!-- har&#45;&gt;spawnHarServer -->
<g id="edge6" class="edge"><title>har&#45;&gt;spawnHarServer</title>
<path fill="none" stroke="black" d="M193.105,-868.52C171.173,-825.204 113.903,-712.091 87.6112,-660.164"/>
<polygon fill="black" stroke="black" points="90.7178,-658.552 83.0781,-651.211 84.4727,-661.714 90.7178,-658.552"/>
<text text-anchor="middle" x="84.358" y="-768.142" font-family="Times,serif" font-size="14.00">resolve_center_chan</text>
</g>
<!-- nexturl -->
<g id="node2" class="node"><title>nexturl</title>
<ellipse fill="none" stroke="black" cx="598.543" cy="-995.455" rx="40.0939" ry="18"/>
<text text-anchor="middle" x="598.543" y="-991.755" font-family="Times,serif" font-size="14.00">/nexturl/</text>
</g>
<!-- nexturl&#45;&gt;killbrowserStationA -->
<g id="edge21" class="edge"><title>nexturl&#45;&gt;killbrowserStationA</title>
<path fill="none" stroke="black" d="M566.282,-1006.51C544.524,-1013.96 515.27,-1023.99 489.924,-1032.67"/>
<polygon fill="black" stroke="black" points="488.751,-1029.38 480.425,-1035.93 491.02,-1036 488.751,-1029.38"/>
<text text-anchor="middle" x="437.603" y="-1008.39" font-family="Times,serif" font-size="14.00">(if alarm) kill_harvester_browser</text>
</g>
<!-- browserA -->
<g id="node14" class="node"><title>browserA</title>
<polygon fill="none" stroke="black" points="340.159,-1080.9 266.159,-1080.9 266.159,-1044.9 340.159,-1044.9 340.159,-1080.9"/>
<text text-anchor="middle" x="303.159" y="-1059.2" font-family="Times,serif" font-size="14.00">browser/A</text>
</g>
<!-- nexturl&#45;&gt;browserA -->
<g id="edge20" class="edge"><title>nexturl&#45;&gt;browserA</title>
<path fill="none" stroke="black" stroke-dasharray="5,2" d="M559.18,-999.604C505.155,-1009.31 408.177,-1031.31 350.333,-1046.84"/>
<polygon fill="black" stroke="black" points="349.08,-1043.56 340.355,-1049.57 350.924,-1050.31 349.08,-1043.56"/>
</g>
<!-- http2har -->
<g id="node3" class="node"><title>http2har</title>
<ellipse fill="none" stroke="black" cx="155.785" cy="-369.108" rx="44.6926" ry="18"/>
<text text-anchor="middle" x="155.785" y="-365.408" font-family="Times,serif" font-size="14.00">/http2har/</text>
</g>
<!-- killbrowserStationB -->
<g id="node11" class="node"><title>killbrowserStationB</title>
<ellipse fill="none" stroke="black" cx="406.313" cy="-200.893" rx="86.3847" ry="18"/>
<text text-anchor="middle" x="406.313" y="-197.193" font-family="Times,serif" font-size="14.00">/killbrowser/StationB</text>
</g>
<!-- http2har&#45;&gt;killbrowserStationB -->
<g id="edge17" class="edge"><title>http2har&#45;&gt;killbrowserStationB</title>
<path fill="none" stroke="black" d="M178.905,-353.584C223.22,-323.829 320.308,-258.64 372.13,-223.845"/>
<polygon fill="black" stroke="black" points="374.299,-226.604 380.65,-218.124 370.397,-220.793 374.299,-226.604"/>
<text text-anchor="middle" x="223.018" y="-292.514" font-family="Times,serif" font-size="14.00">kill_tester_browser</text>
</g>
<!-- http2har&#45;&gt;spawnHarServer -->
<g id="edge24" class="edge"><title>http2har&#45;&gt;spawnHarServer</title>
<path fill="none" stroke="black" d="M150.168,-387.274C136.142,-432.632 99.5073,-551.105 82.7063,-605.437"/>
<polygon fill="black" stroke="black" points="79.3269,-604.519 79.7164,-615.106 86.0145,-606.587 79.3269,-604.519"/>
<text text-anchor="middle" x="84.4371" y="-500.155" font-family="Times,serif" font-size="14.00">finish_chan</text>
</g>
<!-- dnsdaemon -->
<g id="node13" class="node"><title>dnsdaemon</title>
<polygon fill="none" stroke="black" points="555.757,-603.164 526.218,-621.164 467.14,-621.164 437.601,-603.164 467.14,-585.164 526.218,-585.164 555.757,-603.164"/>
<text text-anchor="middle" x="496.679" y="-599.464" font-family="Times,serif" font-size="14.00">dnsdaemon</text>
</g>
<!-- dnsmasq&#45;&gt;dnsdaemon -->
<g id="edge7" class="edge"><title>dnsmasq&#45;&gt;dnsdaemon</title>
<path fill="none" stroke="black" stroke-dasharray="5,2" d="M314.594,-703.625C350.642,-683.736 414.919,-648.273 456.662,-625.243"/>
<polygon fill="black" stroke="black" points="458.401,-628.28 465.466,-620.385 455.02,-622.151 458.401,-628.28"/>
</g>
<!-- setnexturl -->
<g id="node5" class="node"><title>setnexturl</title>
<ellipse fill="none" stroke="black" cx="1044.82" cy="-769.116" rx="50.0912" ry="18"/>
<text text-anchor="middle" x="1044.82" y="-765.416" font-family="Times,serif" font-size="14.00">/setnexturl/</text>
</g>
<!-- startnextjob -->
<g id="node20" class="node"><title>startnextjob</title>
<ellipse fill="none" stroke="black" cx="783.518" cy="-780.608" rx="51.9908" ry="18"/>
<text text-anchor="middle" x="783.518" y="-776.908" font-family="Times,serif" font-size="14.00">startnextjob</text>
</g>
<!-- setnexturl&#45;&gt;startnextjob -->
<g id="edge29" class="edge"><title>setnexturl&#45;&gt;startnextjob</title>
<path fill="none" stroke="black" d="M995.055,-771.304C952.517,-773.175 891.119,-775.876 845.417,-777.886"/>
<polygon fill="black" stroke="black" points="845.168,-774.393 835.332,-778.329 845.476,-781.386 845.168,-774.393"/>
<text text-anchor="middle" x="878.736" y="-778.395" font-family="Times,serif" font-size="14.00">next_job_descr</text>
</g>
<!-- dnsmasqupdated -->
<g id="node6" class="node"><title>dnsmasqupdated</title>
<ellipse fill="none" stroke="black" cx="701.053" cy="-522.449" rx="74.9875" ry="18"/>
<text text-anchor="middle" x="701.053" y="-518.749" font-family="Times,serif" font-size="14.00">/dnsmasqupdated/</text>
</g>
<!-- testurl -->
<g id="node7" class="node"><title>testurl</title>
<ellipse fill="none" stroke="black" cx="548.302" cy="-294.945" rx="37.8943" ry="18"/>
<text text-anchor="middle" x="548.302" y="-291.245" font-family="Times,serif" font-size="14.00">/testurl/</text>
</g>
<!-- dnsmasqupdated&#45;&gt;testurl -->
<g id="edge25" class="edge"><title>dnsmasqupdated&#45;&gt;testurl</title>
<path fill="none" stroke="black" d="M689.067,-504.597C662.109,-464.447 596.623,-366.914 565.404,-320.416"/>
<polygon fill="black" stroke="black" points="568.295,-318.442 559.815,-312.091 562.483,-322.344 568.295,-318.442"/>
<text text-anchor="middle" x="575.736" y="-416.307" font-family="Times,serif" font-size="14.00">next_test_url_chan</text>
</g>
<!-- startbrowserStationB -->
<g id="node10" class="node"><title>startbrowserStationB</title>
<ellipse fill="none" stroke="black" cx="848.643" cy="-336.62" rx="89.8845" ry="18"/>
<text text-anchor="middle" x="848.643" y="-332.92" font-family="Times,serif" font-size="14.00">/startbrowser/StationB</text>
</g>
<!-- dnsmasqupdated&#45;&gt;startbrowserStationB -->
<g id="edge9" class="edge"><title>dnsmasqupdated&#45;&gt;startbrowserStationB</title>
<path fill="none" stroke="black" d="M715.205,-504.631C741.364,-471.693 797.392,-401.15 827.866,-362.781"/>
<polygon fill="black" stroke="black" points="830.839,-364.665 834.318,-354.657 825.357,-360.311 830.839,-364.665"/>
<text text-anchor="middle" x="716.535" y="-437.506" font-family="Times,serif" font-size="14.00">start_tester_browser</text>
</g>
<!-- testurl&#45;&gt;killbrowserStationB -->
<g id="edge15" class="edge"><title>testurl&#45;&gt;killbrowserStationB</title>
<path fill="none" stroke="black" d="M526.116,-280.249C503.412,-265.21 467.799,-241.62 441.295,-224.064"/>
<polygon fill="black" stroke="black" points="442.957,-220.967 432.687,-218.363 439.091,-226.803 442.957,-220.967"/>
<text text-anchor="middle" x="403.205" y="-255.957" font-family="Times,serif" font-size="14.00">(if alarm) kill_tester_browser</text>
</g>
<!-- browserB -->
<g id="node16" class="node"><title>browserB</title>
<polygon fill="none" stroke="black" points="301.792,-235.816 228.792,-235.816 228.792,-199.816 301.792,-199.816 301.792,-235.816"/>
<text text-anchor="middle" x="265.292" y="-214.116" font-family="Times,serif" font-size="14.00">browser/B</text>
</g>
<!-- testurl&#45;&gt;browserB -->
<g id="edge14" class="edge"><title>testurl&#45;&gt;browserB</title>
<path fill="none" stroke="black" stroke-dasharray="5,2" d="M520.214,-282.825C471.596,-266.506 371.322,-238.9 312.053,-225.261"/>
<polygon fill="black" stroke="black" points="312.721,-221.824 302.196,-223.039 311.181,-228.653 312.721,-221.824"/>
</g>
<!-- startbrowserStationA -->
<g id="node8" class="node"><title>startbrowserStationA</title>
<ellipse fill="none" stroke="black" cx="888.23" cy="-987.813" rx="90.1842" ry="18"/>
<text text-anchor="middle" x="888.23" y="-984.113" font-family="Times,serif" font-size="14.00">/startbrowser/StationA</text>
</g>
<!-- browserAresetter -->
<g id="node15" class="node"><title>browserAresetter</title>
<polygon fill="none" stroke="black" points="793.879,-1142.85 748.82,-1160.85 658.703,-1160.85 613.644,-1142.85 658.703,-1124.85 748.82,-1124.85 793.879,-1142.85"/>
<text text-anchor="middle" x="703.762" y="-1139.15" font-family="Times,serif" font-size="14.00">browser_resetter/A</text>
</g>
<!-- startbrowserStationA&#45;&gt;browserAresetter -->
<g id="edge23" class="edge"><title>startbrowserStationA&#45;&gt;browserAresetter</title>
<path fill="none" stroke="black" stroke-dasharray="1,5" d="M867.069,-1005.6C834.164,-1033.25 770.636,-1086.64 733.253,-1118.06"/>
<polygon fill="black" stroke="black" points="730.647,-1115.68 725.244,-1124.79 735.151,-1121.04 730.647,-1115.68"/>
</g>
<!-- killbrowserStationA&#45;&gt;browserAresetter -->
<g id="edge3" class="edge"><title>killbrowserStationA&#45;&gt;browserAresetter</title>
<path fill="none" stroke="black" stroke-dasharray="1,5" d="M480.496,-1066.82C525.755,-1082.23 595.575,-1106 645.072,-1122.86"/>
<polygon fill="black" stroke="black" points="644.093,-1126.22 654.688,-1126.13 646.35,-1119.6 644.093,-1126.22"/>
</g>
<!-- browserBresetter -->
<g id="node17" class="node"><title>browserBresetter</title>
<polygon fill="none" stroke="black" points="788.873,-147.586 744.314,-165.586 655.197,-165.586 610.639,-147.586 655.197,-129.586 744.314,-129.586 788.873,-147.586"/>
<text text-anchor="middle" x="699.756" y="-143.886" font-family="Times,serif" font-size="14.00">browser_resetter/B</text>
</g>
<!-- startbrowserStationB&#45;&gt;browserBresetter -->
<g id="edge10" class="edge"><title>startbrowserStationB&#45;&gt;browserBresetter</title>
<path fill="none" stroke="black" stroke-dasharray="1,5" d="M834.636,-318.836C808.322,-285.426 751.384,-213.135 720.571,-174.013"/>
<polygon fill="black" stroke="black" points="722.989,-171.428 714.052,-165.737 717.49,-175.759 722.989,-171.428"/>
</g>
<!-- killbrowserStationB&#45;&gt;browserBresetter -->
<g id="edge18" class="edge"><title>killbrowserStationB&#45;&gt;browserBresetter</title>
<path fill="none" stroke="black" stroke-dasharray="1,5" d="M471.802,-188.996C518.165,-180.574 580.33,-169.281 628.031,-160.615"/>
<polygon fill="black" stroke="black" points="628.766,-164.039 637.979,-158.808 627.515,-157.152 628.766,-164.039"/>
</g>
<!-- dnsdaemon&#45;&gt;dnsmasqupdated -->
<g id="edge8" class="edge"><title>dnsdaemon&#45;&gt;dnsmasqupdated</title>
<path fill="none" stroke="black" stroke-dasharray="5,2" d="M532.746,-588.92C565.987,-575.791 615.587,-556.203 652.339,-541.688"/>
<polygon fill="black" stroke="black" points="653.848,-544.855 661.863,-537.926 651.276,-538.344 653.848,-544.855"/>
</g>
<!-- browserA&#45;&gt;har -->
<g id="edge22" class="edge"><title>browserA&#45;&gt;har</title>
<path fill="none" stroke="black" stroke-dasharray="5,2" d="M292.703,-1044.62C274.611,-1012.99 237.42,-947.979 216.684,-911.733"/>
<polygon fill="black" stroke="black" points="219.549,-909.692 211.545,-902.75 213.473,-913.168 219.549,-909.692"/>
<text text-anchor="middle" x="238.693" y="-981.975" font-family="Times,serif" font-size="14.00">[data]</text>
</g>
<!-- browserA&#45;&gt;nexturl -->
<g id="edge19" class="edge"><title>browserA&#45;&gt;nexturl</title>
<path fill="none" stroke="black" stroke-dasharray="1,5" d="M340.406,-1059.12C395.953,-1049.27 500.099,-1025.58 557.676,-1009.8"/>
<polygon fill="black" stroke="black" points="558.835,-1013.11 567.523,-1007.04 556.95,-1006.36 558.835,-1013.11"/>
</g>
<!-- browserreadyA -->
<g id="node18" class="node"><title>browserreadyA</title>
<ellipse fill="none" stroke="black" cx="646.278" cy="-1283.37" rx="94.7833" ry="18"/>
<text text-anchor="middle" x="646.278" y="-1279.67" font-family="Times,serif" font-size="14.00">/browserready/StationA</text>
</g>
<!-- browserAresetter&#45;&gt;browserreadyA -->
<g id="edge4" class="edge"><title>browserAresetter&#45;&gt;browserreadyA</title>
<path fill="none" stroke="black" stroke-dasharray="1,5" d="M696.364,-1160.93C686.491,-1185.07 668.919,-1228.03 657.433,-1256.1"/>
<polygon fill="black" stroke="black" points="654.194,-1254.78 653.647,-1265.36 660.673,-1257.43 654.194,-1254.78"/>
</g>
<!-- browserB&#45;&gt;http2har -->
<g id="edge16" class="edge"><title>browserB&#45;&gt;http2har</title>
<path fill="none" stroke="black" stroke-dasharray="5,2" d="M252.083,-236.066C232.719,-262.818 196.538,-312.805 174.46,-343.306"/>
<polygon fill="black" stroke="black" points="171.393,-341.576 168.364,-351.728 177.063,-345.68 171.393,-341.576"/>
</g>
<!-- browserB&#45;&gt;testurl -->
<g id="edge13" class="edge"><title>browserB&#45;&gt;testurl</title>
<path fill="none" stroke="black" stroke-dasharray="1,5" d="M301.911,-232.745C353.144,-249.324 446.18,-274.788 502.109,-287.631"/>
<polygon fill="black" stroke="black" points="501.578,-291.098 512.102,-289.877 503.113,-284.269 501.578,-291.098"/>
</g>
<!-- browserreadyB -->
<g id="node19" class="node"><title>browserreadyB</title>
<ellipse fill="none" stroke="black" cx="615.876" cy="-18" rx="94.4839" ry="18"/>
<text text-anchor="middle" x="615.876" y="-14.3" font-family="Times,serif" font-size="14.00">/browserready/StationB</text>
</g>
<!-- browserBresetter&#45;&gt;browserreadyB -->
<g id="edge11" class="edge"><title>browserBresetter&#45;&gt;browserreadyB</title>
<path fill="none" stroke="black" stroke-dasharray="1,5" d="M688.093,-129.567C673.757,-107.421 649.317,-69.663 632.888,-44.2812"/>
<polygon fill="black" stroke="black" points="635.812,-42.3583 627.44,-35.8653 629.936,-46.162 635.812,-42.3583"/>
</g>
<!-- browserreadyA&#45;&gt;nexturl -->
<g id="edge5" class="edge"><title>browserreadyA&#45;&gt;nexturl</title>
<path fill="none" stroke="black" d="M643.292,-1265.36C635.222,-1216.69 612.929,-1082.23 603.193,-1023.5"/>
<polygon fill="black" stroke="black" points="606.616,-1022.75 601.528,-1013.46 599.711,-1023.9 606.616,-1022.75"/>
<text text-anchor="middle" x="579.743" y="-1148.23" font-family="Times,serif" font-size="14.00">harvester_ready</text>
</g>
<!-- browserreadyB&#45;&gt;testurl -->
<g id="edge12" class="edge"><title>browserreadyB&#45;&gt;testurl</title>
<path fill="none" stroke="black" d="M611.442,-36.1711C599.916,-83.4115 568.946,-210.338 555.125,-266.983"/>
<polygon fill="black" stroke="black" points="551.722,-266.162 552.752,-276.707 558.523,-267.821 551.722,-266.162"/>
<text text-anchor="middle" x="549.784" y="-155.377" font-family="Times,serif" font-size="14.00">tester_ready</text>
</g>
<!-- startnextjob&#45;&gt;nexturl -->
<g id="edge27" class="edge"><title>startnextjob&#45;&gt;nexturl</title>
<path fill="none" stroke="black" d="M768.381,-798.19C735.483,-836.4 657.401,-927.092 619.672,-970.914"/>
<polygon fill="black" stroke="black" points="616.989,-968.666 613.117,-978.528 622.294,-973.233 616.989,-968.666"/>
<text text-anchor="middle" x="648.526" y="-888.352" font-family="Times,serif" font-size="14.00">next_harvest_url</text>
</g>
<!-- startnextjob&#45;&gt;dnsmasqupdated -->
<g id="edge28" class="edge"><title>startnextjob&#45;&gt;dnsmasqupdated</title>
<path fill="none" stroke="black" d="M777.719,-762.455C763.524,-718.017 726.955,-603.535 709.969,-550.36"/>
<polygon fill="black" stroke="black" points="713.222,-549.043 706.845,-540.582 706.554,-551.173 713.222,-549.043"/>
<text text-anchor="middle" x="664.344" y="-660.208" font-family="Times,serif" font-size="14.00">next_test_url_to_check_chan</text>
</g>
<!-- startnextjob&#45;&gt;startbrowserStationA -->
<g id="edge26" class="edge"><title>startnextjob&#45;&gt;startbrowserStationA</title>
<path fill="none" stroke="black" d="M792.627,-798.633C811.038,-835.065 852.77,-917.643 874.499,-960.641"/>
<polygon fill="black" stroke="black" points="871.433,-962.335 879.067,-969.681 877.681,-959.177 871.433,-962.335"/>
<text text-anchor="middle" x="768.563" y="-883.437" font-family="Times,serif" font-size="14.00">start_harvester_browser</text>
</g>
</g>
</svg>
