<?xml version="1.0" encoding="UTF-8" standalone="no"?>
<!DOCTYPE svg PUBLIC "-//W3C//DTD SVG 1.1//EN"
 "http://www.w3.org/Graphics/SVG/1.1/DTD/svg11.dtd">
<!-- Generated by graphviz version 2.36.0 (20140111.2315)
 -->
<!-- Title: chans Pages: 1 -->
<svg width="958pt" height="1181pt"
 viewBox="0.00 0.00 957.83 1180.53" xmlns="http://www.w3.org/2000/svg" xmlns:xlink="http://www.w3.org/1999/xlink">
<g id="graph0" class="graph" transform="scale(1 1) rotate(0) translate(4 1176.53)">
<title>chans</title>
<polygon fill="white" stroke="none" points="-4,4 -4,-1176.53 953.826,-1176.53 953.826,4 -4,4"/>
<!-- har -->
<g id="node1" class="node"><title>har</title>
<ellipse fill="none" stroke="black" cx="213.775" cy="-850.292" rx="27" ry="18"/>
<text text-anchor="middle" x="213.775" y="-846.592" font-family="Times,serif" font-size="14.00">/har/</text>
</g>
<!-- dnsmasq -->
<g id="node4" class="node"><title>dnsmasq</title>
<ellipse fill="none" stroke="black" cx="277.89" cy="-691.634" rx="46.5926" ry="18"/>
<text text-anchor="middle" x="277.89" y="-687.934" font-family="Times,serif" font-size="14.00">/dnsmasq/</text>
</g>
<!-- har&#45;&gt;dnsmasq -->
<g id="edge1" class="edge"><title>har&#45;&gt;dnsmasq</title>
<path fill="none" stroke="black" d="M220.881,-832.707C231.991,-805.215 253.564,-751.831 266.752,-719.196"/>
<polygon fill="black" stroke="black" points="270.053,-720.369 270.554,-709.786 263.563,-717.746 270.053,-720.369"/>
<text text-anchor="middle" x="184.816" y="-779.752" font-family="Times,serif" font-size="14.00">next_dns_masq_chan</text>
</g>
<!-- killbrowserStationA -->
<g id="node9" class="node"><title>killbrowserStationA</title>
<ellipse fill="none" stroke="black" cx="441.181" cy="-979.628" rx="87.1846" ry="18"/>
<text text-anchor="middle" x="441.181" y="-975.928" font-family="Times,serif" font-size="14.00">/killbrowser/StationA</text>
</g>
<!-- har&#45;&gt;killbrowserStationA -->
<g id="edge2" class="edge"><title>har&#45;&gt;killbrowserStationA</title>
<path fill="none" stroke="black" d="M234.357,-861.998C272.257,-883.554 353.648,-929.844 402.262,-957.493"/>
<polygon fill="black" stroke="black" points="400.81,-960.694 411.233,-962.595 404.271,-954.609 400.81,-960.694"/>
<text text-anchor="middle" x="255.809" y="-913.546" font-family="Times,serif" font-size="14.00">kill_harvester_browser</text>
</g>
<!-- spawnHarServer -->
<g id="node12" class="node"><title>spawnHarServer</title>
<polygon fill="none" stroke="black" points="80.9186,-614.319 85.4596,-614.418 89.9537,-614.565 94.3826,-614.761 98.7281,-615.005 102.973,-615.296 107.1,-615.634 111.094,-616.018 114.94,-616.446 118.622,-616.917 122.128,-617.43 125.446,-617.985 128.564,-618.578 131.473,-619.209 134.164,-619.875 136.63,-620.576 138.864,-621.308 140.862,-622.071 142.62,-622.862 144.136,-623.678 145.409,-624.518 146.44,-625.379 147.229,-626.259 147.779,-627.156 148.095,-628.066 148.179,-628.988 148.039,-629.92 147.681,-630.857 147.111,-631.798 146.338,-632.741 145.37,-633.683 144.215,-634.62 142.885,-635.551 141.387,-636.473 139.732,-637.384 137.931,-638.28 135.993,-639.16 133.927,-640.022 131.745,-640.862 129.456,-641.678 127.068,-642.469 124.593,-643.231 122.037,-643.964 119.41,-644.664 116.719,-645.331 113.972,-645.962 111.175,-646.555 108.335,-647.109 105.458,-647.623 102.549,-648.094 99.6124,-648.522 96.6533,-648.905 93.6751,-649.243 90.6813,-649.534 87.6751,-649.778 84.659,-649.974 81.6357,-650.122 78.6073,-650.22 75.576,-650.27 72.5436,-650.27 69.5123,-650.22 66.4839,-650.122 63.4605,-649.974 60.4445,-649.778 57.4383,-649.534 54.4445,-649.243 51.4663,-648.905 48.5071,-648.522 45.5709,-648.094 42.6617,-647.623 39.7846,-647.109 36.9448,-646.555 34.1481,-645.962 31.4008,-645.331 28.7099,-644.664 26.0826,-643.964 23.5269,-643.231 21.0511,-642.469 18.6639,-641.678 16.3745,-640.862 14.1923,-640.022 12.1271,-639.16 10.1886,-638.28 8.38709,-637.384 6.73249,-636.473 5.23488,-635.551 3.90416,-634.62 2.75003,-633.683 1.78186,-632.741 1.00862,-631.798 0.438784,-630.857 0.0802333,-629.92 -0.0598369,-628.988 0.0249984,-628.066 0.34031,-627.156 0.890735,-626.259 1.6799,-625.379 2.71037,-624.518 3.98357,-623.678 5.49974,-622.862 7.2579,-622.071 9.25582,-621.308 11.49,-620.576 13.9556,-619.875 16.6465,-619.209 19.5555,-618.578 22.6737,-617.985 25.9914,-617.43 29.4976,-616.917 33.1799,-616.446 37.0252,-616.018 41.0192,-615.634 45.1466,-615.296 49.3915,-615.005 53.737,-614.761 58.1658,-614.565 62.6599,-614.418 67.201,-614.319 71.7704,-614.27 76.3492,-614.27 80.9186,-614.319"/>
<text text-anchor="middle" x="74.0598" y="-628.57" font-family="Times,serif" font-size="14.00">spawnHarServer</text>
</g>
<!-- har&#45;&gt;spawnHarServer -->
<g id="edge6" class="edge"><title>har&#45;&gt;spawnHarServer</title>
<path fill="none" stroke="black" d="M203.044,-833.547C178.892,-795.859 120.109,-704.129 90.9858,-658.683"/>
<polygon fill="black" stroke="black" points="93.7524,-656.513 85.41,-649.982 87.8587,-660.29 93.7524,-656.513"/>
<text text-anchor="middle" x="91.0147" y="-749.915" font-family="Times,serif" font-size="14.00">resolve_center_chan</text>
</g>
<!-- nexturl -->
<g id="node2" class="node"><title>nexturl</title>
<ellipse fill="none" stroke="black" cx="571.618" cy="-919.537" rx="40.0939" ry="18"/>
<text text-anchor="middle" x="571.618" y="-915.837" font-family="Times,serif" font-size="14.00">/nexturl/</text>
</g>
<!-- nexturl&#45;&gt;killbrowserStationA -->
<g id="edge21" class="edge"><title>nexturl&#45;&gt;killbrowserStationA</title>
<path fill="none" stroke="black" d="M543.315,-932.576C526.573,-940.289 504.993,-950.23 485.985,-958.987"/>
<polygon fill="black" stroke="black" points="484.511,-955.812 476.893,-963.176 487.44,-962.17 484.511,-955.812"/>
<text text-anchor="middle" x="424.15" y="-949.582" font-family="Times,serif" font-size="14.00">(if alarm) kill_harvester_browser</text>
</g>
<!-- browserA -->
<g id="node14" class="node"><title>browserA</title>
<polygon fill="none" stroke="black" points="346.088,-1030.68 272.088,-1030.68 272.088,-994.677 346.088,-994.677 346.088,-1030.68"/>
<text text-anchor="middle" x="309.088" y="-1008.98" font-family="Times,serif" font-size="14.00">browser/A</text>
</g>
<!-- nexturl&#45;&gt;browserA -->
<g id="edge20" class="edge"><title>nexturl&#45;&gt;browserA</title>
<path fill="none" stroke="black" stroke-dasharray="5,2" d="M535.164,-927.42C488.093,-941.529 406.18,-970.383 354.938,-990.741"/>
<polygon fill="black" stroke="black" points="353.402,-987.586 345.43,-994.565 356.014,-994.08 353.402,-987.586"/>
</g>
<!-- http2har -->
<g id="node3" class="node"><title>http2har</title>
<ellipse fill="none" stroke="black" cx="122.551" cy="-384.354" rx="44.6926" ry="18"/>
<text text-anchor="middle" x="122.551" y="-380.654" font-family="Times,serif" font-size="14.00">/http2har/</text>
</g>
<!-- killbrowserStationB -->
<g id="node11" class="node"><title>killbrowserStationB</title>
<ellipse fill="none" stroke="black" cx="329.408" cy="-205.394" rx="86.3847" ry="18"/>
<text text-anchor="middle" x="329.408" y="-201.694" font-family="Times,serif" font-size="14.00">/killbrowser/StationB</text>
</g>
<!-- http2har&#45;&gt;killbrowserStationB -->
<g id="edge17" class="edge"><title>http2har&#45;&gt;killbrowserStationB</title>
<path fill="none" stroke="black" d="M141.641,-367.839C178.286,-336.135 258.637,-266.621 301.377,-229.645"/>
<polygon fill="black" stroke="black" points="303.877,-232.11 309.15,-222.92 299.297,-226.816 303.877,-232.11"/>
<text text-anchor="middle" x="169.009" y="-302.542" font-family="Times,serif" font-size="14.00">kill_tester_browser</text>
</g>
<!-- http2har&#45;&gt;spawnHarServer -->
<g id="edge24" class="edge"><title>http2har&#45;&gt;spawnHarServer</title>
<path fill="none" stroke="black" d="M118.986,-402.584C110.614,-445.386 89.6499,-552.565 79.6009,-603.94"/>
<polygon fill="black" stroke="black" points="76.1155,-603.527 77.6307,-614.013 82.9853,-604.871 76.1155,-603.527"/>
<text text-anchor="middle" x="67.2933" y="-507.062" font-family="Times,serif" font-size="14.00">finish_chan</text>
</g>
<!-- dnsdaemon -->
<g id="node13" class="node"><title>dnsdaemon</title>
<polygon fill="none" stroke="black" points="509.514,-561.426 479.975,-579.426 420.897,-579.426 391.358,-561.426 420.897,-543.426 479.975,-543.426 509.514,-561.426"/>
<text text-anchor="middle" x="450.436" y="-557.726" font-family="Times,serif" font-size="14.00">dnsdaemon</text>
</g>
<!-- dnsmasq&#45;&gt;dnsdaemon -->
<g id="edge7" class="edge"><title>dnsmasq&#45;&gt;dnsdaemon</title>
<path fill="none" stroke="black" stroke-dasharray="5,2" d="M299.394,-675.406C329.209,-652.907 383.345,-612.055 418.059,-585.859"/>
<polygon fill="black" stroke="black" points="420.566,-588.352 426.44,-579.534 416.349,-582.764 420.566,-588.352"/>
</g>
<!-- setnexturl -->
<g id="node5" class="node"><title>setnexturl</title>
<ellipse fill="none" stroke="black" cx="699.578" cy="-697.021" rx="50.0912" ry="18"/>
<text text-anchor="middle" x="699.578" y="-693.321" font-family="Times,serif" font-size="14.00">/setnexturl/</text>
</g>
<!-- setnexturl&#45;&gt;nexturl -->
<g id="edge27" class="edge"><title>setnexturl&#45;&gt;nexturl</title>
<path fill="none" stroke="black" d="M689.323,-714.854C666.852,-753.93 613.179,-847.265 586.791,-893.153"/>
<polygon fill="black" stroke="black" points="583.695,-891.514 581.744,-901.928 589.764,-895.004 583.695,-891.514"/>
<text text-anchor="middle" x="592.557" y="-807.803" font-family="Times,serif" font-size="14.00">next_harvest_url</text>
</g>
<!-- dnsmasqupdated -->
<g id="node6" class="node"><title>dnsmasqupdated</title>
<ellipse fill="none" stroke="black" cx="623.146" cy="-465.884" rx="74.9875" ry="18"/>
<text text-anchor="middle" x="623.146" y="-462.184" font-family="Times,serif" font-size="14.00">/dnsmasqupdated/</text>
</g>
<!-- setnexturl&#45;&gt;dnsmasqupdated -->
<g id="edge28" class="edge"><title>setnexturl&#45;&gt;dnsmasqupdated</title>
<path fill="none" stroke="black" d="M693.58,-678.884C680.269,-638.63 648.185,-541.603 632.33,-493.656"/>
<polygon fill="black" stroke="black" points="635.578,-492.332 629.115,-483.937 628.932,-494.53 635.578,-492.332"/>
<text text-anchor="middle" x="583.455" y="-590.07" font-family="Times,serif" font-size="14.00">next_test_url_to_check_chan</text>
</g>
<!-- startbrowserStationA -->
<g id="node8" class="node"><title>startbrowserStationA</title>
<ellipse fill="none" stroke="black" cx="859.484" cy="-833.435" rx="90.1842" ry="18"/>
<text text-anchor="middle" x="859.484" y="-829.735" font-family="Times,serif" font-size="14.00">/startbrowser/StationA</text>
</g>
<!-- setnexturl&#45;&gt;startbrowserStationA -->
<g id="edge26" class="edge"><title>setnexturl&#45;&gt;startbrowserStationA</title>
<path fill="none" stroke="black" d="M719.185,-713.748C747.17,-737.622 798.737,-781.613 830.954,-809.097"/>
<polygon fill="black" stroke="black" points="828.822,-811.879 838.702,-815.706 833.365,-806.553 828.822,-811.879"/>
<text text-anchor="middle" x="710.07" y="-765.222" font-family="Times,serif" font-size="14.00">start_harvester_browser</text>
</g>
<!-- testurl -->
<g id="node7" class="node"><title>testurl</title>
<ellipse fill="none" stroke="black" cx="463.044" cy="-271.709" rx="37.8943" ry="18"/>
<text text-anchor="middle" x="463.044" y="-268.009" font-family="Times,serif" font-size="14.00">/testurl/</text>
</g>
<!-- dnsmasqupdated&#45;&gt;testurl -->
<g id="edge25" class="edge"><title>dnsmasqupdated&#45;&gt;testurl</title>
<path fill="none" stroke="black" d="M608.371,-447.964C579.607,-413.079 516.052,-335.999 483.353,-296.34"/>
<polygon fill="black" stroke="black" points="485.929,-293.963 476.867,-288.474 480.528,-298.416 485.929,-293.963"/>
<text text-anchor="middle" x="494.362" y="-375.952" font-family="Times,serif" font-size="14.00">next_test_url_chan</text>
</g>
<!-- startbrowserStationB -->
<g id="node10" class="node"><title>startbrowserStationB</title>
<ellipse fill="none" stroke="black" cx="751.382" cy="-294.678" rx="89.8845" ry="18"/>
<text text-anchor="middle" x="751.382" y="-290.978" font-family="Times,serif" font-size="14.00">/startbrowser/StationB</text>
</g>
<!-- dnsmasqupdated&#45;&gt;startbrowserStationB -->
<g id="edge9" class="edge"><title>dnsmasqupdated&#45;&gt;startbrowserStationB</title>
<path fill="none" stroke="black" d="M636.627,-447.885C659.332,-417.573 705.294,-356.209 731.64,-321.035"/>
<polygon fill="black" stroke="black" points="734.695,-322.794 737.889,-312.692 729.093,-318.598 734.695,-322.794"/>
<text text-anchor="middle" x="629.133" y="-388.26" font-family="Times,serif" font-size="14.00">start_tester_browser</text>
</g>
<!-- testurl&#45;&gt;killbrowserStationB -->
<g id="edge15" class="edge"><title>testurl&#45;&gt;killbrowserStationB</title>
<path fill="none" stroke="black" d="M436.642,-258.607C418.221,-249.466 393.237,-237.068 372.019,-226.539"/>
<polygon fill="black" stroke="black" points="373.393,-223.314 362.88,-222.004 370.281,-229.584 373.393,-223.314"/>
<text text-anchor="middle" x="323.83" y="-246.373" font-family="Times,serif" font-size="14.00">(if alarm) kill_tester_browser</text>
</g>
<!-- browserB -->
<g id="node16" class="node"><title>browserB</title>
<polygon fill="none" stroke="black" points="231.696,-244.137 158.696,-244.137 158.696,-208.137 231.696,-208.137 231.696,-244.137"/>
<text text-anchor="middle" x="195.196" y="-222.437" font-family="Times,serif" font-size="14.00">browser/B</text>
</g>
<!-- testurl&#45;&gt;browserB -->
<g id="edge14" class="edge"><title>testurl&#45;&gt;browserB</title>
<path fill="none" stroke="black" stroke-dasharray="5,2" d="M431.504,-261.692C384.63,-251.027 296.29,-235.777 241.903,-228.775"/>
<polygon fill="black" stroke="black" points="242.185,-225.283 231.831,-227.528 241.325,-232.23 242.185,-225.283"/>
</g>
<!-- browserAresetter -->
<g id="node15" class="node"><title>browserAresetter</title>
<polygon fill="none" stroke="black" points="805.698,-1008.7 760.639,-1026.7 670.522,-1026.7 625.463,-1008.7 670.522,-990.702 760.639,-990.702 805.698,-1008.7"/>
<text text-anchor="middle" x="715.58" y="-1005" font-family="Times,serif" font-size="14.00">browser_resetter/A</text>
</g>
<!-- startbrowserStationA&#45;&gt;browserAresetter -->
<g id="edge23" class="edge"><title>startbrowserStationA&#45;&gt;browserAresetter</title>
<path fill="none" stroke="black" stroke-dasharray="1,5" d="M844.893,-851.205C819.425,-882.224 766.749,-946.381 737.088,-982.506"/>
<polygon fill="black" stroke="black" points="734.065,-980.673 730.424,-990.623 739.475,-985.115 734.065,-980.673"/>
</g>
<!-- killbrowserStationA&#45;&gt;browserAresetter -->
<g id="edge3" class="edge"><title>killbrowserStationA&#45;&gt;browserAresetter</title>
<path fill="none" stroke="black" stroke-dasharray="1,5" d="M518.712,-987.843C554.783,-991.665 597.688,-996.211 634.223,-1000.08"/>
<polygon fill="black" stroke="black" points="634.034,-1003.58 644.347,-1001.15 634.772,-996.62 634.034,-1003.58"/>
</g>
<!-- browserBresetter -->
<g id="node17" class="node"><title>browserBresetter</title>
<polygon fill="none" stroke="black" points="686.143,-134.397 641.585,-152.397 552.468,-152.397 507.91,-134.397 552.468,-116.397 641.585,-116.397 686.143,-134.397"/>
<text text-anchor="middle" x="597.027" y="-130.697" font-family="Times,serif" font-size="14.00">browser_resetter/B</text>
</g>
<!-- startbrowserStationB&#45;&gt;browserBresetter -->
<g id="edge10" class="edge"><title>startbrowserStationB&#45;&gt;browserBresetter</title>
<path fill="none" stroke="black" stroke-dasharray="1,5" d="M734.273,-276.913C706.951,-248.541 653.341,-192.873 621.817,-160.139"/>
<polygon fill="black" stroke="black" points="624.144,-157.51 614.686,-152.734 619.102,-162.365 624.144,-157.51"/>
</g>
<!-- killbrowserStationB&#45;&gt;browserBresetter -->
<g id="edge18" class="edge"><title>killbrowserStationB&#45;&gt;browserBresetter</title>
<path fill="none" stroke="black" stroke-dasharray="1,5" d="M382.922,-191.198C426.264,-179.699 487.444,-163.469 533.312,-151.3"/>
<polygon fill="black" stroke="black" points="534.38,-154.638 543.148,-148.691 532.585,-147.872 534.38,-154.638"/>
</g>
<!-- dnsdaemon&#45;&gt;dnsmasqupdated -->
<g id="edge8" class="edge"><title>dnsdaemon&#45;&gt;dnsmasqupdated</title>
<path fill="none" stroke="black" stroke-dasharray="5,2" d="M481.713,-544.124C510.555,-528.169 553.467,-504.43 584.455,-487.288"/>
<polygon fill="black" stroke="black" points="586.202,-490.321 593.258,-482.418 582.813,-484.196 586.202,-490.321"/>
</g>
<!-- browserA&#45;&gt;har -->
<g id="edge22" class="edge"><title>browserA&#45;&gt;har</title>
<path fill="none" stroke="black" stroke-dasharray="5,2" d="M298.34,-994.365C281.34,-965.403 248.197,-908.937 228.835,-875.951"/>
<polygon fill="black" stroke="black" points="231.845,-874.165 223.765,-867.312 225.808,-877.708 231.845,-874.165"/>
<text text-anchor="middle" x="247.588" y="-938.958" font-family="Times,serif" font-size="14.00">[data]</text>
</g>
<!-- browserA&#45;&gt;nexturl -->
<g id="edge19" class="edge"><title>browserA&#45;&gt;nexturl</title>
<path fill="none" stroke="black" stroke-dasharray="1,5" d="M346.095,-1004.63C396.558,-989.468 486.313,-957.657 536.027,-937.343"/>
<polygon fill="black" stroke="black" points="537.522,-940.512 545.413,-933.442 534.835,-934.049 537.522,-940.512"/>
</g>
<!-- browserreadyA -->
<g id="node18" class="node"><title>browserreadyA</title>
<ellipse fill="none" stroke="black" cx="670.078" cy="-1154.53" rx="94.7833" ry="18"/>
<text text-anchor="middle" x="670.078" y="-1150.83" font-family="Times,serif" font-size="14.00">/browserready/StationA</text>
</g>
<!-- browserAresetter&#45;&gt;browserreadyA -->
<g id="edge4" class="edge"><title>browserAresetter&#45;&gt;browserreadyA</title>
<path fill="none" stroke="black" stroke-dasharray="1,5" d="M709.909,-1026.88C702.11,-1051.87 687.998,-1097.1 678.836,-1126.46"/>
<polygon fill="black" stroke="black" points="675.458,-1125.54 675.82,-1136.12 682.14,-1127.62 675.458,-1125.54"/>
</g>
<!-- browserB&#45;&gt;http2har -->
<g id="edge16" class="edge"><title>browserB&#45;&gt;http2har</title>
<path fill="none" stroke="black" stroke-dasharray="5,2" d="M186.862,-244.286C174.163,-271.945 149.882,-324.828 135.06,-357.11"/>
<polygon fill="black" stroke="black" points="131.779,-355.868 130.787,-366.416 138.141,-358.789 131.779,-355.868"/>
</g>
<!-- browserB&#45;&gt;testurl -->
<g id="edge13" class="edge"><title>browserB&#45;&gt;testurl</title>
<path fill="none" stroke="black" stroke-dasharray="1,5" d="M231.906,-237.311C279.559,-247.828 362.81,-262.133 415.32,-268.939"/>
<polygon fill="black" stroke="black" points="415.036,-272.431 425.393,-270.197 415.904,-265.485 415.036,-272.431"/>
</g>
<!-- browserreadyB -->
<g id="node19" class="node"><title>browserreadyB</title>
<ellipse fill="none" stroke="black" cx="507.844" cy="-18" rx="94.4839" ry="18"/>
<text text-anchor="middle" x="507.844" y="-14.3" font-family="Times,serif" font-size="14.00">/browserready/StationB</text>
</g>
<!-- browserBresetter&#45;&gt;browserreadyB -->
<g id="edge11" class="edge"><title>browserBresetter&#45;&gt;browserreadyB</title>
<path fill="none" stroke="black" stroke-dasharray="1,5" d="M583.092,-116.21C568.301,-96.9054 544.788,-66.2172 527.982,-44.2839"/>
<polygon fill="black" stroke="black" points="530.541,-41.8685 521.681,-36.0593 524.984,-46.1259 530.541,-41.8685"/>
</g>
<!-- browserreadyA&#45;&gt;nexturl -->
<g id="edge5" class="edge"><title>browserreadyA&#45;&gt;nexturl</title>
<path fill="none" stroke="black" d="M662.515,-1136.48C645.327,-1095.46 603.247,-995.025 582.943,-946.566"/>
<polygon fill="black" stroke="black" points="586.164,-945.197 579.071,-937.326 579.708,-947.902 586.164,-945.197"/>
<text text-anchor="middle" x="579.229" y="-1045.32" font-family="Times,serif" font-size="14.00">harvester_ready</text>
</g>
<!-- browserreadyB&#45;&gt;testurl -->
<g id="edge12" class="edge"><title>browserreadyB&#45;&gt;testurl</title>
<path fill="none" stroke="black" d="M504.622,-36.2461C496.889,-80.0402 477.235,-191.343 467.991,-243.69"/>
<polygon fill="black" stroke="black" points="464.529,-243.172 466.236,-253.628 471.422,-244.389 464.529,-243.172"/>
<text text-anchor="middle" x="452.807" y="-143.768" font-family="Times,serif" font-size="14.00">tester_ready</text>
</g>
</g>
</svg>
